<?xml version="1.0" encoding="utf-8"?>
<!-- Generator: Adobe Illustrator 25.4.1, SVG Export Plug-In . SVG Version: 6.00 Build 0)  -->
<svg version="1.1" id="Capa_1" xmlns="http://www.w3.org/2000/svg" xmlns:xlink="http://www.w3.org/1999/xlink" x="0px" y="0px"
	 viewBox="0 0 256 256" style="enable-background:new 0 0 256 256;" xml:space="preserve">
<style type="text/css">
	.st0{fill:#FFFFFF;}
</style>
<g transform="translate(1.4065934065934016 1.4065934065934016) scale(2.81 2.81)">
	<path class="st0" d="M89.7,26.4c-0.2-4.8-1-8.1-2.1-10.9c-1.1-3-2.9-5.7-5.2-8c-2.2-2.3-5-4.1-8-5.2c-2.9-1.1-6.1-1.9-10.9-2.1
		C58.8,0.1,57.2,0,45,0S31.2,0.1,26.4,0.3c-4.8,0.2-8.1,1-10.9,2.1c-3,1.1-5.7,2.9-8,5.2c-2.3,2.2-4.1,5-5.2,8
		c-1.1,2.9-1.9,6.1-2.1,10.9C0.1,31.2,0,32.8,0,45s0.1,13.8,0.3,18.6c0.2,4.8,1,8.1,2.1,10.9c1.1,3,2.9,5.7,5.2,8
		c2.2,2.3,5,4.1,8,5.2c2.9,1.1,6.1,1.9,10.9,2.1C31.2,90,32.8,90,45,90s13.8-0.1,18.6-0.3c4.8-0.2,8.1-1,10.9-2.1
		c6-2.3,10.8-7.1,13.2-13.2c1.1-2.9,1.9-6.1,2.1-10.9C89.9,58.8,90,57.2,90,45S89.9,31.2,89.7,26.4z M81.6,63.2
		c-0.2,4.4-0.9,6.8-1.5,8.4c-1.5,3.9-4.6,7-8.5,8.5c-1.6,0.6-4,1.3-8.4,1.5c-4.7,0.2-6.2,0.3-18.2,0.3c-12,0-13.4,0-18.2-0.3
		c-4.4-0.2-6.8-0.9-8.4-1.5c-2-0.7-3.7-1.9-5.2-3.4c-1.5-1.5-2.6-3.2-3.4-5.2c-0.6-1.6-1.3-4-1.5-8.4C8.2,58.4,8.1,57,8.1,45
		s0-13.4,0.3-18.2c0.2-4.4,0.9-6.8,1.5-8.4c0.7-2,1.9-3.7,3.4-5.2c1.5-1.5,3.2-2.6,5.2-3.4c1.6-0.6,4-1.3,8.4-1.5
		C31.6,8.2,33,8.1,45,8.1l0,0c12,0,13.4,0,18.2,0.3c4.4,0.2,6.8,0.9,8.4,1.5c2,0.7,3.7,1.9,5.2,3.4c1.5,1.5,2.6,3.2,3.4,5.2
		c0.6,1.6,1.3,4,1.5,8.4c0.2,4.7,0.3,6.2,0.3,18.2S81.8,58.4,81.6,63.2z"/>
	<path class="st0" d="M45,21.9c-12.8,0-23.1,10.3-23.1,23.1S32.2,68.1,45,68.1c12.8,0,23.1-10.3,23.1-23.1S57.8,21.9,45,21.9z
		 M45,60c-8.3,0-15-6.7-15-15s6.7-15,15-15s15,6.7,15,15S53.3,60,45,60z"/>
	<path class="st0" d="M74.4,21c0,3-2.4,5.4-5.4,5.4c-3,0-5.4-2.4-5.4-5.4s2.4-5.4,5.4-5.4S74.4,18,74.4,21z"/>
</g>
</svg>
