<svg id="LOGO-NOMBRE" xmlns="http://www.w3.org/2000/svg" viewBox="0 0 841.89 233.13"><defs><style>.cls-1{font-size:200px;font-family:CenturyGothic, Century Gothic;}.cls-1,.cls-2{fill:#d5a6bd;}</style></defs><text class="cls-1" transform="translate(0 171.8)">Crisálida</text><path class="cls-2" d="M99.25,396.86a9.75,9.75,0,0,1-3.12,1.4c-6.25,1.39-11.7,3.86-13.4,5.1-.55.41-5.81,4.27-5.81,5.21s1.07,2.14.6,3a2.45,2.45,0,0,1-1.32,1.1c-.1,0-1-.65-3.78,4.12-.21.33,0,1.42,0,1.77s-.83,0-2.13,1.9a2.91,2.91,0,0,0,0,1.19s-.22,3.79-.11,5.57,2.48,16.12,2.24,17.54l-.24,1.43s1.19,3-.59,9.36a38.42,38.42,0,0,0-.83,4.15c-.71,1.78.36,8.77,3.67,12.69a37.62,37.62,0,0,0,2.79,4.19c1.18,1.06,7.65,9,17.37,8.61,3.32,0,6-9.36,8.89-21.81s4.62-37.58,4-39.84a20.25,20.25,0,0,1-.59-6.28c.12-2.85-4.13-13.58-4.7-14.86a37.08,37.08,0,0,1-1.31-4.79C100.89,397.35,100.91,395.68,99.25,396.86Z" transform="translate(-5.56 -358.24)"/></svg>