<svg id="LOGO" xmlns="http://www.w3.org/2000/svg" viewBox="0 0 168.97 233.13"><defs><style>.cls-1{font-size:200px;font-family:CenturyGothic-Bold, Century Gothic;font-weight:700;}.cls-1,.cls-2{fill:#ff00bc;}</style></defs><text class="cls-1" transform="translate(0 171.8)">C</text><path class="cls-2" d="M425.22,107.93a9.06,9.06,0,0,1-2.79,1.25c-5.6,1.24-10.48,3.45-12,4.56-.5.36-5.2,3.82-5.2,4.67s.95,1.91.53,2.65a2.2,2.2,0,0,1-1.18,1c-.09,0-.92-.57-3.38,3.69-.19.29,0,1.27,0,1.59s-.75,0-1.91,1.7a2.68,2.68,0,0,0,0,1.06s-.19,3.39-.1,5,2.22,14.43,2,15.71L401,152s1.06,2.65-.54,8.38a36.59,36.59,0,0,0-.74,3.71c-.63,1.6.32,7.86,3.29,11.36a33.28,33.28,0,0,0,2.49,3.75c1.06.95,6.85,8,15.55,7.7,3,0,5.41-8.38,7.95-19.52s4.14-33.63,3.61-35.64a18.14,18.14,0,0,1-.53-5.63c.11-2.54-3.69-12.15-4.21-13.29a33.41,33.41,0,0,1-1.17-4.29C426.69,108.36,426.7,106.87,425.22,107.93Z" transform="translate(-336.46 -57.06)"/></svg>