<?xml version="1.0" encoding="utf-8"?>
<!-- Generator: Adobe Illustrator 25.4.1, SVG Export Plug-In . SVG Version: 6.00 Build 0)  -->
<svg version="1.1" id="Capa_1" xmlns="http://www.w3.org/2000/svg" xmlns:xlink="http://www.w3.org/1999/xlink" x="0px" y="0px"
	 viewBox="0 0 256 256" style="enable-background:new 0 0 256 256;" xml:space="preserve">
<style type="text/css">
	.st0{fill:#FFFFFF;}
</style>
<path class="st0" d="M249,67c-2.9-10.9-11.5-19.5-22.4-22.4c-19.7-5.3-98.8-5.3-98.8-5.3s-79.1,0-98.8,5.3
	C18.2,47.5,9.6,56.1,6.7,67c-5.3,19.7-5.3,60.9-5.3,60.9s0,41.1,5.3,60.9c2.9,10.9,11.5,19.5,22.4,22.4c19.7,5.3,98.8,5.3,98.8,5.3
	s79.1,0,98.8-5.3c10.9-2.9,19.5-11.5,22.4-22.4c5.3-19.7,5.3-60.9,5.3-60.9S254.3,86.7,249,67z M102.6,165.8V89.9l65.7,37.9
	L102.6,165.8z"/>
</svg>
